HIERARCHY
ROOT Hips
{
	OFFSET 0.00000 0.00000 0.00000
	CHANNELS 6 Xposition Yposition Zposition Zrotation Yrotation Xrotation 
	JOINT LHipJoint
	{
		OFFSET 0 0 0
		CHANNELS 3 Zrotation Yrotation Xrotation
		JOINT LeftHip
		{
			OFFSET 1.58161 -1.81893 0.78828
			CHANNELS 3 Zrotation Yrotation Xrotation
			JOINT LeftKnee
			{
				OFFSET 2.53374 -6.96141 0.00000
				CHANNELS 3 Zrotation Yrotation Xrotation
				JOINT LeftAnkle
				{
					OFFSET 2.63509 -7.23986 0.00000
					CHANNELS 3 Zrotation Yrotation Xrotation
					JOINT LeftToe
					{
						OFFSET 0.14115 -0.38781 2.05350
						CHANNELS 3 Zrotation Yrotation Xrotation
						End Site
						{
							OFFSET 0.00000 -0.00000 1.05543
						}
					}
				}
			}
		}
	}
	JOINT RHipJoint
	{
		OFFSET 0 0 0
		CHANNELS 3 Zrotation Yrotation Xrotation
		JOINT RightHip
		{
			OFFSET -1.11138 -1.81893 0.78828
			CHANNELS 3 Zrotation Yrotation Xrotation
			JOINT RightKnee
			{
				OFFSET -2.58392 -7.09926 0.00000
				CHANNELS 3 Zrotation Yrotation Xrotation
				JOINT RightAnkle
				{
					OFFSET -2.66423 -7.31992 0.00000
					CHANNELS 3 Zrotation Yrotation Xrotation
					JOINT RightToe
					{
						OFFSET -0.18831 -0.51739 2.12114
						CHANNELS 3 Zrotation Yrotation Xrotation
						End Site
						{
							OFFSET -0.00000 -0.00000 1.09845
						}
					}
				}
			}
		}
	}
	JOINT lowerback
	{
		OFFSET 0 0 0
		CHANNELS 3 Zrotation Yrotation Xrotation
		JOINT Chest
		{
			OFFSET -0.01511 1.97958 -0.08829
			CHANNELS 3 Zrotation Yrotation Xrotation
			JOINT Chest2
			{
				OFFSET 0.08344 1.97334 -0.04330
				CHANNELS 3 Zrotation Yrotation Xrotation
				JOINT lowerneck
				{
					OFFSET 0 0 0
					CHANNELS 3 Zrotation Yrotation Xrotation
					JOINT Neck
					{
						OFFSET 0.00559 1.76246 0.31246
						CHANNELS 3 Zrotation Yrotation Xrotation
						JOINT Head
						{
							OFFSET -0.07011 1.80354 -0.30524
							CHANNELS 3 Zrotation Yrotation Xrotation
							End Site
							{
								OFFSET -0.02385 1.83547 -0.13906
							}
						}
					}
				}
				JOINT LeftCollar
				{
					OFFSET 0 0 0
					CHANNELS 3 Zrotation Yrotation Xrotation
					JOINT LeftShoulder
					{
						OFFSET 3.20667 1.30156 -0.60240
CHANNELS 3 Zrotation Xrotation Yrotation
						JOINT LeftElbow
						{
OFFSET 0 -4.956630 0.000000
CHANNELS 3 Zrotation Xrotation Yrotation
							JOINT LeftWrist
							{
OFFSET 0 -3.381770 0.000000
CHANNELS 3 Zrotation Xrotation Yrotation
								JOINT lhand
								{
									OFFSET 0 0 0
CHANNELS 3 Zrotation Xrotation Yrotation
									JOINT LFingers
									{
OFFSET 0 -0.662910 0.000000
CHANNELS 3 Zrotation Xrotation Yrotation
										End Site
										{
OFFSET 0 -0.534450 0.000000
										}
									}
								}
								JOINT LThumb
								{
OFFSET 0 0.000000 0.000000
CHANNELS 3 Zrotation Xrotation Yrotation
									End Site
									{
OFFSET 0 -0.542610 0.542610
									}
								}
							}
						}
					}
				}
				JOINT RightCollar
				{
					OFFSET 0 0 0
					CHANNELS 3 Zrotation Yrotation Xrotation
					JOINT RightShoulder
					{
						OFFSET -3.06877 1.34672 -0.60964
CHANNELS 3 Zrotation Xrotation Yrotation
						JOINT RightElbow
						{
OFFSET 0 -5.083650 0.000000
CHANNELS 3 Zrotation Xrotation Yrotation
							JOINT RightWrist
							{
OFFSET 0 -3.359840 0.000000
CHANNELS 3 Zrotation Xrotation Yrotation
								JOINT rhand
								{
									OFFSET 0 0 0
CHANNELS 3 Zrotation Xrotation Yrotation
									JOINT RFingers
									{
OFFSET 0 -0.820760 0.000000
CHANNELS 3 Zrotation Xrotation Yrotation
										End Site
										{
OFFSET 0 -0.661720 0.000000
										}
									}
								}
								JOINT RThumb
								{
OFFSET 0 0.000000 0.000000
CHANNELS 3 Zrotation Xrotation Yrotation
									End Site
									{
OFFSET 0 -0.671820 0.671820
									}
								}
							}
						}
					}
				}
			}
		}
	}
}
MOTION
Frames: 10
Frame Time: 0.008333333333333333
-10.399400 17.901500 5.692800 -61.848200 85.231900 -46.549100 0.000000 0.000000 0.000000 -7.223100 -4.549800 -30.138500 2.537300 9.905400 28.670900 0.332300 -4.726400 -10.291100 0.660400 -5.197600 -14.473000 0.000000 0.000000 0.000000 15.195300 8.448200 -31.067100 -2.520800 -9.875700 28.575000 -0.240400 0.809900 -9.010500 -0.005400 -0.474000 1.302400 -1.045300 1.159300 4.023900 4.297700 1.626100 5.763100 5.038500 0.761100 3.550400 1.831300 -1.558500 -13.424700 -3.779800 1.030800 42.191200 -1.701000 0.844300 17.987600 0.000000 0.000000 0.000000 -11.081200 -21.659600 -72.815900 20.210400 -30.895000 5.639000 9.370100 -42.357800 -55.190600 0.000000 0.000000 0.000000 -7.125000 0.000000 0.000000 -76.029100 75.234200 60.782600 0.000000 0.000000 0.000000 6.257100 -20.163400 60.656600 -19.887100 -30.506100 -5.473900 -28.568000 -35.711000 8.700100 0.000000 0.000000 0.000000 7.125000 0.000000 -0.000000 -1.463100 39.859500 -0.185400
-10.397871 17.900845 5.692509 -61.906430 85.227460 -46.596485 0.000000 0.000000 0.000000 -7.140850 -4.683948 -30.064111 2.541449 9.912824 28.694920 0.332955 -4.804793 -10.307186 0.572108 -4.838537 -13.449674 0.000000 0.000000 0.000000 15.208329 8.421851 -31.103130 -2.526477 -9.885963 28.608119 -0.240473 0.817834 -9.009408 -0.003071 -0.349605 0.960515 -1.083295 1.162430 4.009270 4.309856 1.629448 5.767831 5.073438 0.760882 3.562264 1.816815 -1.556316 -13.396458 -3.752286 1.025268 42.171547 -1.685787 0.843063 17.967656 0.000000 0.000000 0.000000 -11.123417 -21.667316 -72.746315 20.196279 -30.878113 5.631721 9.195045 -42.437139 -55.112790 0.000000 0.000000 0.000000 -7.125000 0.000000 0.000000 -75.778928 75.157190 60.455564 0.000000 0.000000 0.000000 6.203455 -20.175774 60.745329 -19.894233 -30.514689 -5.477539 -28.599808 -35.833721 8.660722 0.000000 0.000000 0.000000 7.125000 0.000000 0.000000 -1.492943 39.817647 -0.190786
-10.396069 17.899597 5.692537 -61.795939 85.228124 -46.477016 0.000000 0.000000 0.000000 -7.120263 -4.741255 -30.011005 2.543820 9.917150 28.708822 0.335479 -4.827491 -10.346835 0.540604 -4.710863 -13.085695 0.000000 0.000000 0.000000 15.201441 8.409949 -31.127402 -2.529284 -9.890985 28.624420 -0.241685 0.836296 -9.027458 -0.002975 -0.347764 0.955482 -1.132320 1.171849 3.990629 4.320279 1.640863 5.770101 5.112752 0.764218 3.572762 1.809440 -1.554269 -13.391415 -3.750751 1.036144 42.195101 -1.682014 0.847750 17.981028 0.000000 0.000000 0.000000 -11.170055 -21.664412 -72.715697 20.189815 -30.870387 5.628408 9.203707 -42.381710 -55.089625 0.000000 0.000000 0.000000 -7.125000 0.000000 0.000000 -75.688955 75.156657 60.368667 0.000000 0.000000 0.000000 6.149902 -20.182588 60.799465 -19.906015 -30.528929 -5.483549 -28.585676 -35.961500 8.643630 0.000000 0.000000 0.000000 7.125000 0.000000 0.000000 -1.481403 39.797078 -0.190065
-10.394361 17.898620 5.692608 -61.671514 85.228017 -46.346457 0.000000 0.000000 0.000000 -7.119307 -4.774059 -29.982067 2.545333 9.919937 28.717730 0.337980 -4.813264 -10.383199 0.535018 -4.686398 -13.016301 0.000000 0.000000 0.000000 15.188667 8.417619 -31.137160 -2.530541 -9.893190 28.631634 -0.244018 0.846187 -9.069113 -0.004396 -0.423945 1.164868 -1.168115 1.182839 3.979968 4.324252 1.654671 5.768203 5.137342 0.769512 3.574564 1.819000 -1.552323 -13.401838 -3.769739 1.054410 42.244543 -1.690213 0.856306 18.014678 0.000000 0.000000 0.000000 -11.204274 -21.653221 -72.708051 20.187812 -30.867984 5.627388 9.328212 -42.246825 -55.121161 0.000000 0.000000 0.000000 -7.125000 0.000000 0.000000 -75.777123 75.207552 60.510818 0.000000 0.000000 0.000000 6.108761 -20.178938 60.827732 -19.925237 -30.552163 -5.493324 -28.551974 -36.084826 8.648880 0.000000 0.000000 0.000000 7.125000 0.000000 0.000000 -1.451601 39.800107 -0.186139
-10.393415 17.899494 5.692244 -61.804352 85.216589 -46.478276 0.000000 0.000000 0.000000 -7.067409 -4.870212 -29.987089 2.547443 9.923649 28.729740 0.337106 -4.788153 -10.368132 0.505757 -4.558364 -12.653234 0.000000 0.000000 0.000000 15.193689 8.457725 -31.124713 -2.532288 -9.896320 28.641679 -0.247658 0.812050 -9.146850 -0.006361 -0.514493 1.413657 -1.145187 1.187351 4.000058 4.312169 1.661295 5.758303 5.110556 0.774316 3.553019 1.866166 -1.550430 -13.417051 -3.803586 1.065546 42.294257 -1.713651 0.865841 18.049471 0.000000 0.000000 0.000000 -11.193865 -21.636262 -72.699535 20.185483 -30.865145 5.626150 9.470949 -42.114933 -55.218114 0.000000 0.000000 0.000000 -7.125000 0.000000 0.000000 -76.109764 75.275536 60.906858 0.000000 0.000000 0.000000 6.104249 -20.154117 60.840543 -19.958283 -30.592051 -5.510065 -28.541565 -36.186001 8.680907 0.000000 0.000000 0.000000 7.125000 0.000000 0.000000 -1.440901 39.835409 -0.183519
-10.392533 17.898577 5.693543 -61.440633 85.101515 -46.122426 0.000000 0.000000 0.000000 -7.035140 -4.712715 -30.071206 2.548020 9.924675 28.732990 0.336105 -4.693986 -10.344816 0.565756 -4.812754 -13.376187 0.000000 0.000000 0.000000 15.270580 8.570850 -31.085539 -2.533267 -9.898107 28.647504 -0.249059 0.796902 -9.177208 -0.008007 -0.577547 1.587061 -1.081337 1.241993 4.031337 4.300534 1.735631 5.750642 5.059665 0.814862 3.521883 1.916146 -1.568231 -13.389871 -3.806102 1.028152 42.308165 -1.730567 0.860158 18.048265 0.000000 0.000000 0.000000 -11.139466 -21.606258 -72.763399 20.194024 -30.875350 5.630540 9.365280 -42.235540 -55.234759 0.000000 0.000000 0.000000 -7.125000 0.000000 0.000000 -76.197771 75.239298 60.950396 0.000000 0.000000 0.000000 6.173842 -20.141829 60.713453 -19.940177 -30.570173 -5.500847 -28.578664 -36.195359 8.613379 0.000000 0.000000 0.000000 7.125000 0.000000 0.000000 -1.476685 39.762269 -0.190745
-10.390961 17.897229 5.697238 -60.346143 84.944442 -45.038687 0.000000 0.000000 0.000000 -7.035962 -4.430869 -30.148968 2.547796 9.924302 28.731760 0.336445 -4.598343 -10.342690 0.646775 -5.139090 -14.306867 0.000000 0.000000 0.000000 15.342615 8.740394 -31.032494 -2.533002 -9.897651 28.645986 -0.248021 0.792426 -9.159287 -0.008580 -0.598526 1.644735 -1.071104 1.330346 4.044552 4.285728 1.853567 5.750452 5.035922 0.874752 3.503449 1.947087 -1.593091 -13.348598 -3.773834 0.970674 42.314400 -1.731044 0.847963 18.037230 0.000000 0.000000 0.000000 -11.074351 -21.575478 -72.848628 20.205427 -30.889013 5.636406 9.217927 -42.390169 -55.229273 0.000000 0.000000 0.000000 -7.125000 0.000000 0.000000 -76.211966 75.184267 60.901743 0.000000 0.000000 0.000000 6.276903 -20.143542 60.538686 -19.899162 -30.520613 -5.480029 -28.599749 -36.173096 8.486606 0.000000 0.000000 0.000000 7.125000 0.000000 0.000000 -1.501126 39.620647 -0.199077
-10.388781 17.896233 5.702566 -58.644169 84.778686 -43.350552 0.000000 0.000000 0.000000 -7.060116 -4.116447 -30.183320 2.547062 9.923024 28.727662 0.338166 -4.527895 -10.364163 0.708290 -5.374825 -14.981586 0.000000 0.000000 0.000000 15.385691 8.938386 -30.972561 -2.531848 -9.895586 28.639195 -0.244957 0.794039 -9.101839 -0.007562 -0.552165 1.517235 -1.128825 1.435510 4.040242 4.268159 1.992342 5.757846 5.048256 0.941993 3.499305 1.949235 -1.618324 -13.304358 -3.710655 0.909062 42.321506 -1.712500 0.833590 18.025498 0.000000 0.000000 0.000000 -11.015075 -21.549924 -72.925225 20.213541 -30.898751 5.640577 9.094667 -42.511534 -55.221580 0.000000 0.000000 0.000000 -7.125000 0.000000 0.000000 -76.212020 75.137762 60.849121 0.000000 0.000000 0.000000 6.388917 -20.156271 60.367586 -19.850143 -30.461381 -5.455176 -28.605775 -36.142662 8.339722 0.000000 0.000000 0.000000 7.125000 0.000000 0.000000 -1.513195 39.454888 -0.206804
-10.387107 17.898781 5.704605 -57.225022 84.735741 -41.954988 0.000000 0.000000 0.000000 -7.041119 -4.168053 -30.041966 2.546771 9.922442 28.725842 0.340205 -4.572223 -10.396772 0.583531 -4.883943 -13.579399 0.000000 0.000000 0.000000 15.332847 9.023184 -30.933256 -2.532212 -9.896241 28.641451 -0.242337 0.783631 -9.053944 -0.002686 -0.307888 0.845912 -1.251400 1.477654 4.047448 4.253310 2.046205 5.768910 5.101464 0.964120 3.498577 1.886783 -1.617742 -13.294095 -3.640706 0.907242 42.352150 -1.668900 0.833518 18.040784 0.000000 0.000000 0.000000 -11.024829 -21.552398 -72.870343 20.190904 -30.871601 5.628931 9.179319 -42.417710 -55.271149 0.000000 0.000000 0.000000 -7.125000 0.000000 0.000000 -76.378923 75.176486 61.053509 0.000000 0.000000 0.000000 6.408934 -20.162167 60.405727 -19.851235 -30.462764 -5.455758 -28.659129 -36.181386 8.355954 0.000000 0.000000 0.000000 7.125000 0.000000 0.000000 -1.559051 39.477743 -0.212190
-10.386149 17.899896 5.703062 -56.795434 84.732682 -41.538792 0.000000 0.000000 0.000000 -6.990829 -4.323563 -29.914385 2.546425 9.921804 28.723857 0.342793 -4.587077 -10.436543 0.489679 -4.478949 -12.429532 0.000000 0.000000 0.000000 15.310634 9.012893 -30.927667 -2.533402 -9.898383 28.648336 -0.241425 0.796691 -9.032439 -0.000729 -0.147186 0.404321 -1.278445 1.477763 4.061320 4.246394 2.046078 5.777495 5.109442 0.963054 3.499226 1.856505 -1.604213 -13.304547 -3.637142 0.944428 42.392159 -1.655711 0.845400 18.069842 0.000000 0.000000 0.000000 -11.031332 -21.570464 -72.830942 20.181323 -30.860152 5.624007 9.234883 -42.396222 -55.268766 0.000000 0.000000 0.000000 -7.125000 0.000000 0.000000 -76.356806 75.196588 61.054940 0.000000 0.000000 0.000000 6.408842 -20.177208 60.494002 -19.862959 -30.476928 -5.461685 -28.794128 -36.244129 8.397087 0.000000 0.000000 0.000000 7.125000 0.000000 0.000000 -1.675370 39.535803 -0.225565
